<?xml version="1.0" standalone="no"?>
<!DOCTYPE svg PUBLIC "-//W3C//DTD SVG 20010904//EN"
 "http://www.w3.org/TR/2001/REC-SVG-20010904/DTD/svg10.dtd">
<svg version="1.0" xmlns="http://www.w3.org/2000/svg"
 width="70.000000pt" height="70.000000pt" viewBox="0 0 70.000000 70.000000"
 preserveAspectRatio="xMidYMid meet">
<metadata>
Created by potrace 1.11, written by Peter Selinger 2001-2013
</metadata>
<g transform="translate(0.000000,70.000000) scale(0.100000,-0.100000)"
fill="#000000" stroke="none">
<path d="M176 661 c-3 -4 -32 -7 -65 -6 -49 2 -58 0 -53 -13 3 -9 1 -13 -5 -9
-8 5 -11 -193 -4 -306 1 -14 8 -18 34 -17 17 1 34 1 37 0 15 -6 173 -4 176 2
3 4 -3 5 -13 3 -10 -3 -8 0 4 6 14 7 23 21 23 36 0 13 -4 21 -10 18 -6 -3 -7
1 -4 9 3 9 11 13 18 9 7 -4 7 -2 -1 8 -10 12 -10 18 0 29 8 8 8 11 1 7 -15 -9
-27 20 -12 29 7 5 8 2 3 -6 -5 -8 -4 -11 3 -7 5 4 8 16 5 27 -3 11 -9 17 -14
14 -5 -3 -6 2 -3 10 3 9 11 13 18 9 7 -4 7 -2 -1 8 -10 12 -10 18 0 29 8 8 8
11 1 7 -15 -9 -27 20 -12 29 7 5 8 2 3 -6 -5 -8 -4 -11 3 -6 12 7 -4 66 -21
77 -5 4 -32 6 -58 4 -28 -2 -47 1 -43 6 3 5 3 9 0 9 -3 0 -7 -4 -10 -9z"/>
<path d="M404 653 c-12 -28 -12 -87 0 -102 8 -11 8 -13 -1 -8 -8 5 -11 -5 -9
-37 3 -55 20 -80 47 -65 13 7 19 6 19 -1 0 -6 5 -8 11 -5 16 11 59 13 59 4 0
-5 5 -9 11 -9 5 0 8 4 5 8 -3 5 1 9 9 9 8 0 15 -5 15 -10 0 -5 7 -4 16 4 13
10 17 10 24 0 5 -9 9 -10 14 -2 4 6 12 9 17 6 11 -8 11 -9 13 103 1 75 -2 95
-14 101 -19 10 -201 8 -217 -2 -9 -6 -11 -3 -7 7 8 22 -2 20 -12 -1z"/>
<path d="M402 379 c-6 -9 -9 -29 -6 -44 3 -20 1 -25 -8 -19 -10 6 -10 4 -2 -7
5 -8 9 -25 8 -39 -1 -14 3 -28 10 -32 8 -6 8 -8 0 -8 -6 0 -11 -11 -11 -25 0
-14 5 -25 11 -25 7 0 8 -3 1 -8 -13 -9 -16 -110 -4 -118 5 -3 6 -11 2 -17 -3
-7 4 -3 17 8 13 11 20 14 16 8 -4 -8 -1 -13 9 -13 10 0 13 5 9 12 -5 7 -3 8 7
2 8 -5 21 -7 31 -6 9 2 19 -2 22 -7 9 -14 37 -2 29 13 -3 6 -1 6 8 -1 16 -16
33 -17 23 -1 -5 7 -3 8 6 3 19 -11 71 -15 64 -4 -3 5 0 9 5 9 6 0 11 5 11 11
0 5 -5 7 -12 3 -7 -5 -8 -3 -3 7 9 13 14 301 6 293 -2 -2 -10 4 -17 14 -11 14
-13 14 -14 2 0 -13 -1 -13 -10 0 -5 8 -10 10 -10 4 0 -8 -11 -9 -35 -4 -19 4
-35 4 -35 0 0 -5 -13 -5 -30 0 -19 5 -30 5 -30 -1 0 -6 -6 -7 -12 -3 -22 14
-45 11 -56 -7z"/>
<path d="M53 258 c-10 -17 -11 -188 -1 -194 5 -3 6 -9 3 -13 -2 -5 6 -9 20 -9
14 0 22 5 18 11 -4 6 -1 7 8 1 8 -5 21 -7 31 -6 9 2 19 -2 22 -7 9 -14 37 -2
29 13 -3 6 -1 6 8 -2 16 -15 33 -16 23 0 -5 7 -3 8 6 3 22 -13 62 -12 76 2 8
9 12 30 9 58 -2 33 0 43 8 38 8 -4 7 -1 -1 9 -9 11 -10 18 -2 23 6 3 7 12 3
18 -4 7 -8 17 -9 24 -1 6 -7 19 -13 30 -8 14 -11 14 -11 3 0 -13 -1 -13 -10 0
-8 12 -10 12 -10 1 0 -10 -3 -11 -14 -2 -10 9 -16 9 -21 1 -5 -8 -11 -8 -21 1
-11 9 -14 8 -14 -2 0 -11 -2 -11 -10 1 -7 11 -10 11 -10 2 0 -8 -5 -10 -12 -5
-19 11 -39 13 -32 2 3 -5 1 -9 -5 -9 -5 0 -12 6 -14 13 -4 9 -6 9 -6 -1 -1 -9
-6 -10 -20 -2 -15 7 -22 7 -28 -2z"/>
</g>
</svg>
