<?xml version="1.0" standalone="no"?>
<!DOCTYPE svg PUBLIC "-//W3C//DTD SVG 20010904//EN"
 "http://www.w3.org/TR/2001/REC-SVG-20010904/DTD/svg10.dtd">
<svg version="1.0" xmlns="http://www.w3.org/2000/svg"
 width="16.000000pt" height="16.000000pt" viewBox="0 0 16.000000 16.000000"
 preserveAspectRatio="xMidYMid meet">
<metadata>
Created by potrace 1.11, written by Peter Selinger 2001-2013
</metadata>
<g transform="translate(0.000000,16.000000) scale(0.005904,-0.005904)"
fill="#000000" stroke="none">
<path d="M2197 2470 c-95 -24 -185 -88 -235 -168 -148 -232 -10 -537 264 -582
32 -6 145 -10 250 -10 158 0 194 3 204 15 10 12 6 32 -20 105 l-32 90 17 64
c67 246 -95 477 -345 491 -36 3 -82 0 -103 -5z m195 -77 c28 -8 69 -34 98 -60
101 -91 133 -210 90 -342 l-22 -69 20 -54 c11 -29 23 -61 27 -70 7 -17 -6 -18
-189 -18 -230 0 -274 11 -351 86 -156 151 -124 405 65 508 85 46 160 52 262
19z"/>
<path d="M2254 2277 c-2 -7 -3 -67 -2 -133 l3 -119 30 0 30 0 6 115 c3 63 2
123 -3 133 -10 20 -56 23 -64 4z"/>
<path d="M2260 1970 c-19 -19 -20 -24 -7 -43 19 -28 40 -32 61 -11 21 21 17
42 -11 61 -19 13 -24 12 -43 -7z"/>
<path d="M1715 2131 c-167 -81 -255 -283 -197 -454 l19 -58 -33 -89 c-19 -49
-31 -96 -28 -105 6 -14 35 -16 253 -13 l246 3 62 29 c75 34 173 131 173 169 0
39 -28 42 -58 5 -52 -62 -88 -91 -142 -117 -53 -25 -64 -26 -259 -29 -166 -3
-203 -1 -199 10 52 137 52 135 33 183 -68 179 18 368 195 428 36 12 45 20 45
38 0 35 -38 35 -110 0z"/>
<path d="M945 1703 c-174 -22 -315 -74 -369 -134 -20 -21 -36 -47 -36 -57 0
-10 11 -52 25 -92 14 -41 22 -77 18 -80 -5 -4 -30 -15 -58 -25 -205 -74 -400
-210 -484 -337 -42 -61 -45 -79 -13 -72 9 2 85 19 167 38 83 19 200 44 260 56
61 11 120 23 131 25 20 4 22 0 26 -63 6 -84 30 -139 97 -222 l52 -65 -49 -6
c-75 -10 -152 -70 -167 -132 -11 -44 4 -49 41 -12 60 60 110 59 218 -6 36 -22
70 -37 75 -34 33 20 63 224 44 295 -9 34 -11 35 -57 35 -39 0 -52 5 -71 27
-24 28 -90 186 -81 195 3 3 61 10 130 15 141 12 241 4 232 -17 -15 -41 -38
-290 -34 -386 3 -103 5 -110 31 -136 26 -27 31 -28 110 -24 147 7 232 6 248
-2 13 -7 19 1 28 37 19 75 14 112 -18 148 -29 33 -30 33 -123 33 -51 0 -111
-4 -133 -9 l-40 -9 60 64 c78 82 101 121 123 206 l18 69 259 -42 c281 -47 369
-53 378 -29 4 8 -13 40 -37 72 -95 130 -275 242 -548 344 -111 41 -118 46
-122 74 -3 17 -12 72 -20 124 -8 52 -21 100 -28 107 -27 27 -175 41 -283 27z"/>
<path d="M769 994 c-12 -14 -9 -20 15 -41 34 -29 78 -26 111 8 20 20 20 20 1
35 -27 20 -110 18 -127 -2z"/>
<path d="M690 543 c0 -22 75 -132 123 -181 29 -29 79 -67 113 -83 137 -68 331
-22 442 105 37 43 48 72 32 91 -18 22 -65 18 -193 -15 -125 -32 -237 -39 -298
-19 -19 7 -63 31 -99 55 -65 43 -120 64 -120 47z"/>
</g>
</svg>
